<svg xmlns="http://www.w3.org/2000/svg" version="1.1" xmlns:xlink="http://www.w3.org/1999/xlink" xmlns:svgjs="http://svgjs.dev/svgjs" width="2000" height="1999" viewBox="0 0 2000 1999"><g transform="matrix(1,0,0,1,-0.431486880466764,-0.4312711370263287)"><svg viewBox="0 0 343 343" data-background-color="#ffffff" preserveAspectRatio="xMidYMid meet" height="1999" width="2000" xmlns="http://www.w3.org/2000/svg" xmlns:xlink="http://www.w3.org/1999/xlink"><g id="tight-bounds" transform="matrix(1,0,0,1,0.0740000000000407,0.07400000000001228)"><svg viewBox="0 0 342.85155851775386 342.85155851775386" height="342.85155851775386" width="342.85155851775386"><g><svg></svg></g><g><svg viewBox="0 0 342.85155851775386 342.85155851775386" height="342.85155851775386" width="342.85155851775386"><g><path d="M0 171.426c0-94.676 76.75-171.426 171.426-171.426 94.676 0 171.426 76.75 171.426 171.426 0 94.676-76.75 171.426-171.426 171.426-94.676 0-171.426-76.75-171.426-171.426zM171.426 328.239c86.605 0 156.813-70.208 156.813-156.813 0-86.605-70.208-156.813-156.813-156.813-86.605 0-156.813 70.208-156.813 156.813 0 86.605 70.208 156.813 156.813 156.813z" data-fill-palette-color="tertiary" fill="#1327d3" stroke="transparent"></path><ellipse rx="164.56874808852186" ry="164.56874808852186" cx="171.42577925887693" cy="171.42577925887693" fill="#1327d3" stroke="transparent" stroke-width="0" fill-opacity="1" data-fill-palette-color="tertiary"></ellipse></g><g transform="matrix(1,0,0,1,64.84655864529837,90.40681177374735)"><svg viewBox="0 0 213.1584412271571 162.03793497025916" height="162.03793497025916" width="213.1584412271571"><g><svg viewBox="0 0 213.1584412271571 162.03793497025916" height="162.03793497025916" width="213.1584412271571"><g><svg viewBox="0 0 213.1584412271571 162.03793497025916" height="162.03793497025916" width="213.1584412271571"><g><svg viewBox="0 0 213.1584412271571 162.03793497025916" height="162.03793497025916" width="213.1584412271571"><g id="textblocktransform"><svg viewBox="0 0 213.1584412271571 162.03793497025916" height="162.03793497025916" width="213.1584412271571" id="textblock"><g><svg viewBox="0 0 213.1584412271571 162.03793497025916" height="162.03793497025916" width="213.1584412271571"><g transform="matrix(1,0,0,1,0,0)"><svg width="213.1584412271571" viewBox="-0.1 -34.55 45.45 34.55" height="162.03793497025916" data-palette-color="#000000"><path d="M24.95 0L18.5 0 16.8-8.1 7.9-8.1 6.25 0-0.1 0 8.6-34.55 16.3-34.55 24.95 0ZM12.35-29.7L8.9-12.9 15.85-12.9 12.35-29.7ZM27.85-34.55L34.2-34.55 34.2-5.25 45.35-5.25 44.65 0 27.85 0 27.85-34.55Z" opacity="1" transform="matrix(1,0,0,1,0,0)" fill="#000000" class="wordmark-text-0" data-fill-palette-color="quaternary" id="text-0"></path></svg></g></svg></g></svg></g></svg></g><g></g></svg></g></svg></g></svg></g></svg></g><defs></defs></svg><rect width="342.85155851775386" height="342.85155851775386" fill="none" stroke="none" visibility="hidden"></rect></g></svg></g></svg>